<?xml version="1.0" encoding="UTF-8"?>
<svg width="765" height="763" viewBox="0 0 765 763" xmlns="http://www.w3.org/2000/svg">
    <path id="APPROVAL-SEAL-copy" fill="#fee46e" fill-rule="evenodd" stroke="#fee46e" stroke-width="6.896254" d="M 413.953125 209.75 L 501.75 66 L 507.125 68.078125 L 475.171875 233.4375 L 608.953125 131.140625 L 613.21875 135.015625 L 523.6875 277.6875 L 685.40625 230.609375 L 687.984375 235.765625 L 552.953125 336.453125 L 720.765625 350.984375 L 721.296875 356.71875 L 559.015625 401.84375 L 710.25 475.984375 L 708.671875 481.53125 L 541.046875 464.984375 L 655.265625 588.765625 L 651.796875 593.359375 L 501.484375 517.375 L 563.28125 674.0625 L 558.375 677.09375 L 445.671875 551.9375 L 446.6875 720.359375 L 441.015625 721.421875 L 381.125 563.984375 L 321.234375 721.421875 L 315.5625 720.359375 L 316.578125 551.9375 L 203.875 677.09375 L 198.96875 674.0625 L 260.765625 517.375 L 110.4375 593.359375 L 106.96875 588.765625 L 221.1875 464.984375 L 53.578125 481.53125 L 52 475.984375 L 203.21875 401.84375 L 40.9375 356.71875 L 41.46875 350.984375 L 209.28125 336.453125 L 74.25 235.765625 L 76.828125 230.609375 L 238.546875 277.6875 L 149.015625 135.015625 L 153.28125 131.140625 L 287.0625 233.4375 L 255.109375 68.078125 L 260.484375 66 L 348.296875 209.75 L 378.25 43.96875 L 384 43.96875 Z"/>
</svg>
